<svg xmlns="http://www.w3.org/2000/svg" viewBox="0 0 24 24">
  <!-- Trash Can Body -->
  <path d="M6 7V19C6 19.5304 6.21071 20.0391 6.58579 20.4142C6.96086 20.7893 7.46957 21 8 21H16C16.5304 21 17.0391 20.7893 17.4142 20.4142C17.7893 20.0391 18 19.5304 18 19V7H6Z" 
        fill="none" 
        stroke="#667085" 
        stroke-width="1.5" 
        stroke-linejoin="round"/>
  
  <!-- Trash Can Lid -->
  <path d="M4 7H20" 
        stroke="#667085" 
        stroke-width="1.5" 
        stroke-linecap="round"/>
  
  <!-- Handle -->
  <path d="M10 3H14C14.5304 3 15.0391 3.21071 15.4142 3.58579C15.7893 3.96086 16 4.46957 16 5V7H8V5C8 4.46957 8.21071 3.96086 8.58579 3.58579C8.96086 3.21071 9.46957 3 10 3Z" 
        fill="none"
        stroke="#667085" 
        stroke-width="1.5" 
        stroke-linejoin="round"/>
  
  <!-- Delete Lines -->
  <path d="M10 11V17" 
        stroke="#667085" 
        stroke-width="1.5" 
        stroke-linecap="round"/>
  
  <path d="M14 11V17" 
        stroke="#667085" 
        stroke-width="1.5" 
        stroke-linecap="round"/>
</svg>